<svg xmlns="http://www.w3.org/2000/svg"
 width="20px" height="21px"  viewBox="0 0 20 21">
<path fill-rule="evenodd"  fill="#ffffff"
 d="M18.45996,8.561523 C18.343628,7.998535 18.171753,7.4438477 17.947266,6.9125977 C17.72754,6.390625 17.455017,5.88916 17.136658,5.419922 C16.824097,4.9555664 16.46283,4.5185547 16.066406,4.1220703 C15.668945,3.724121 15.232361,3.362793 14.767517,3.050293 C14.298767,2.7319336 13.796814,2.4594727 13.275269,2.2382812 C12.746033,2.0161133 12.189392,1.8427734 11.625977,1.7290039 C11.046814,1.6098633 10.452026,1.5493164 9.857422,1.5493164 C9.261597,1.5493164 8.667908,1.6098633 8.088867,1.7290039 C7.5253296,1.8427734 6.9697266,2.0161133 6.439392,2.2382812 C5.9189453,2.4594727 5.4159546,2.7319336 4.9472046,3.050293 C4.482361,3.362793 4.0458984,3.724121 3.6474,4.1220703 C3.251892,4.5185547 2.890564,4.9555664 2.5761108,5.419922 C2.2596436,5.88916 1.9862671,6.390625 1.7675781,6.9125977 C1.5429077,7.4438477 1.3699951,7.998535 1.2548828,8.561523 C1.1366577,9.139648 1.0761108,9.73584 1.0761108,10.32959 C1.0761108,10.92627 1.1366577,11.520996 1.2548828,12.097656 C1.3699951,12.662109 1.5429077,13.218262 1.7675781,13.74707 C1.9862671,14.268555 2.2596436,14.771484 2.5761108,15.241211 C2.890564,15.705566 3.251892,16.142578 3.6474,16.53955 C4.0458984,16.936523 4.482361,17.296387 4.9472046,17.609863 C5.4159546,17.928223 5.9189453,18.200195 6.439392,18.421387 C6.9697266,18.64502 7.5253296,18.815918 8.088867,18.932129 C8.667908,19.051758 9.261597,19.111328 9.857422,19.111328 C10.452026,19.111328 11.046814,19.051758 11.625977,18.932129 C12.189392,18.815918 12.746033,18.64502 13.275269,18.421387 C13.796814,18.200195 14.298767,17.928223 14.767517,17.609863 C15.232361,17.296387 15.668945,16.936523 16.066406,16.53955 C16.46283,16.142578 16.824097,15.705566 17.136658,15.241211 C17.455017,14.771484 17.72754,14.268555 17.947266,13.74707 C18.171753,13.218262 18.343628,12.662109 18.45996,12.097656 C18.578003,11.520996 18.637634,10.92627 18.637634,10.32959 C18.637634,9.73584 18.578003,9.139648 18.45996,8.561523 ZM17.353516,10.254395 C17.244995,10.23291 14.70697,9.686035 12.131836,10.009766 C12.078003,9.880859 12.0234375,9.751953 11.969666,9.622559 C11.812378,9.254883 11.644531,8.89209 11.470703,8.534668 C14.431641,7.32666 15.633667,5.5878906 15.648315,5.5664062 C16.700195,6.84375 17.335876,8.476074 17.353516,10.254395 ZM14.810547,4.7026367 C14.791992,4.732422 13.723572,6.3564453 10.892517,7.418457 C9.611267,5.0615234 8.203064,3.1914062 8.090759,3.0429688 C8.658203,2.9057617 9.247986,2.8310547 9.857422,2.8310547 C11.755737,2.8310547 13.488281,3.5395508 14.810547,4.7026367 ZM8.061462,3.0488281 C8.060425,3.050293 8.060425,3.0507812 8.060425,3.0507812 C8.060425,3.0507812 8.051758,3.0527344 8.037109,3.0546875 C8.044922,3.0527344 8.053711,3.052246 8.061462,3.0488281 ZM6.658081,3.5478516 C6.756714,3.682129 8.14447,5.5620117 9.441284,7.868164 C5.841797,8.825195 2.7176514,8.787109 2.5185547,8.784668 C3.0067139,6.461914 4.566345,4.536133 6.658081,3.5478516 ZM2.3583374,10.32959 C2.3583374,10.249023 2.3621826,10.171875 2.3641357,10.092773 C2.4970093,10.096191 6.203064,10.1796875 10.0625,9.024902 C10.27832,9.444824 10.484314,9.872559 10.671753,10.300293 C10.572205,10.326172 10.474609,10.356445 10.375916,10.38916 C6.328064,11.6953125 4.2772827,15.337402 4.2772827,15.337402 C4.2772827,15.337402 4.279236,15.339355 4.279236,15.341797 C3.0859375,14.012207 2.3583374,12.255859 2.3583374,10.32959 ZM9.857422,17.82959 C8.042969,17.82959 6.3778076,17.184082 5.0809937,16.110352 C5.178589,16.190918 5.247925,16.24121 5.247925,16.24121 C5.247925,16.24121 6.685425,13.106934 11.132751,11.556641 C11.150391,11.550781 11.166931,11.544922 11.182495,11.54248 C12.23822,14.283691 12.673828,16.57959 12.784119,17.235352 C11.88562,17.617676 10.896423,17.82959 9.857422,17.82959 ZM14.046875,16.549316 C13.970642,16.09668 13.571228,13.895996 12.58783,11.192383 C15.008728,10.807129 17.106445,11.469727 17.261597,11.520996 C16.927673,13.610352 15.732361,15.413086 14.046875,16.549316 Z"/>
</svg>