<svg xmlns="http://www.w3.org/2000/svg"
 width="11px" height="20px"  viewBox="0 0 11 20">
<path fill-rule="evenodd"  fill="#ffffff"
 d="M9.614197,7.0629883 C9.614197,7.0629883 6.8983765,7.0629883 6.8983765,7.0629883 C6.8983765,7.0629883 6.8983765,5.282715 6.8983765,5.282715 C6.8983765,4.6132812 7.341736,4.458496 7.654297,4.458496 C7.9657593,4.458496 9.570251,4.458496 9.570251,4.458496 C9.570251,4.458496 9.570251,1.5175781 9.570251,1.5175781 C9.570251,1.5175781 6.930664,1.5078125 6.930664,1.5078125 C4.0009766,1.5078125 3.334961,3.699707 3.334961,5.104004 C3.334961,5.104004 3.334961,7.0629883 3.334961,7.0629883 C3.334961,7.0629883 1.6405029,7.0629883 1.6405029,7.0629883 C1.6405029,7.0629883 1.6405029,10.092773 1.6405029,10.092773 C1.6405029,10.092773 3.334961,10.092773 3.334961,10.092773 C3.334961,13.981445 3.334961,18.666016 3.334961,18.666016 C3.334961,18.666016 6.8983765,18.666016 6.8983765,18.666016 C6.8983765,18.666016 6.8983765,13.935547 6.8983765,10.092773 C6.8983765,10.092773 9.303711,10.092773 9.303711,10.092773 C9.303711,10.092773 9.614197,7.0629883 9.614197,7.0629883 Z"/>
</svg>