<svg xmlns="http://www.w3.org/2000/svg"
 width="20px" height="18px"  viewBox="0 0 20 18">
<path fill-rule="evenodd"  fill="#ffffff"
 d="M18.479492,7.5058594 C18.479492,7.5058594 15.810486,7.5058594 15.810486,7.5058594 C15.810486,7.5058594 15.810486,4.8378906 15.810486,4.8378906 C15.810486,4.6347656 15.645447,4.46875 15.441406,4.46875 C15.441406,4.46875 14.681519,4.46875 14.681519,4.46875 C14.477478,4.46875 14.312439,4.6347656 14.312439,4.8378906 C14.312439,4.8378906 14.312439,7.5058594 14.312439,7.5058594 C14.312439,7.5058594 11.64447,7.5058594 11.64447,7.5058594 C11.441345,7.5058594 11.274353,7.671875 11.274353,7.8759766 C11.274353,7.8759766 11.274353,8.635254 11.274353,8.635254 C11.274353,8.839355 11.441345,9.004883 11.64447,9.004883 C11.64447,9.004883 14.312439,9.004883 14.312439,9.004883 C14.312439,9.004883 14.312439,11.673828 14.312439,11.673828 C14.312439,11.876953 14.477478,12.041992 14.681519,12.041992 C14.681519,12.041992 15.441406,12.041992 15.441406,12.041992 C15.645447,12.041992 15.810486,11.876953 15.810486,11.673828 C15.810486,11.673828 15.810486,9.004883 15.810486,9.004883 C15.810486,9.004883 18.479492,9.004883 18.479492,9.004883 C18.682617,9.004883 18.847595,8.839355 18.847595,8.635254 C18.847595,8.635254 18.847595,7.8759766 18.847595,7.8759766 C18.847595,7.671875 18.682617,7.5058594 18.479492,7.5058594 ZM9.511658,9.845215 C8.951111,9.448242 8.440369,8.864746 8.431519,8.686523 C8.431519,8.359375 8.459961,8.203125 9.191345,7.6347656 C10.137634,6.8935547 10.658081,5.9194336 10.658081,4.892578 C10.658081,3.958496 10.372925,3.130371 9.887695,2.5498047 C9.887695,2.5498047 10.264526,2.5498047 10.264526,2.5498047 C10.342712,2.5498047 10.418823,2.5253906 10.480469,2.4804688 C10.480469,2.4804688 11.531189,1.7197266 11.531189,1.7197266 C11.661987,1.6269531 11.715759,1.4584961 11.666016,1.3061523 C11.616089,1.1538086 11.474548,1.0517578 11.314331,1.0517578 C11.314331,1.0517578 6.6210938,1.0517578 6.6210938,1.0517578 C6.107361,1.0517578 5.5858765,1.1416016 5.073181,1.3178711 C3.3623047,1.9082031 2.1658936,3.3657227 2.1658936,4.8618164 C2.1658936,6.982422 3.8085938,8.589355 6.003784,8.640625 C5.959961,8.809082 5.939392,8.972168 5.939392,9.135742 C5.939392,9.462891 6.022461,9.771973 6.192383,10.069824 C6.1727295,10.071289 6.154297,10.071289 6.131714,10.071289 C4.039978,10.071289 2.149292,11.098633 1.4334717,12.626465 C1.2460327,13.024414 1.1522217,13.425293 1.1522217,13.820801 C1.1522217,14.20752 1.249939,14.57959 1.4452515,14.927734 C1.8955078,15.734375 2.8632202,16.360352 4.171814,16.69043 C4.8466797,16.861816 5.5722656,16.948242 6.326172,16.948242 C7.0028687,16.948242 7.6483154,16.861328 8.244995,16.687012 C10.105469,16.148438 11.308594,14.777344 11.308594,13.196289 C11.308594,11.6796875 10.821167,10.770508 9.511658,9.845215 ZM3.5839233,13.317871 C3.5839233,12.214355 4.9852905,11.245605 6.583008,11.245605 C6.583008,11.245605 6.625,11.24707 6.625,11.24707 C6.9744873,11.251465 7.312439,11.30127 7.633789,11.400391 C7.7440186,11.475586 7.848572,11.547852 7.951111,11.616699 C8.690308,12.121582 9.178589,12.454102 9.315369,12.98877 C9.347656,13.123047 9.364258,13.256348 9.364258,13.387207 C9.364258,14.762207 8.33783,15.459473 6.316345,15.459473 C4.783203,15.459473 3.5839233,14.519531 3.5839233,13.317871 ZM5.0369873,2.8896484 C5.2870483,2.6054688 5.61322,2.4545898 5.982422,2.4545898 C5.982422,2.4545898 6.0233765,2.4545898 6.0233765,2.4545898 C7.060425,2.4848633 8.052612,3.6425781 8.236206,5.0317383 C8.33783,5.8115234 8.164917,6.543457 7.774292,6.9902344 C7.5233154,7.2753906 7.2001953,7.425293 6.819214,7.425293 C6.819214,7.425293 6.819214,7.425293 6.8183594,7.425293 C6.8183594,7.425293 6.801819,7.425293 6.801819,7.425293 C5.785095,7.3950195 4.7714844,6.194336 4.588867,4.804199 C4.4872437,4.027832 4.6503296,3.3305664 5.0369873,2.8896484 Z"/>
</svg>