<svg xmlns="http://www.w3.org/2000/svg"
 xmlns:xlink="http://www.w3.org/1999/xlink"
 width="30px" height="26px"  viewBox="0 0 30 26">
<path fill-rule="evenodd"  fill="#000000"
 d="M28.999878,15.999512 C28.999878,15.999512 24.0,11.0 24.0,11.0 C24.0,11.0 24.0,2.9995117 24.0,2.9995117 C24.0,2.9995117 20.999878,2.9995117 20.999878,2.9995117 C20.999878,2.9995117 20.999878,7.9995117 20.999878,7.9995117 C20.999878,7.9995117 16.0,1.9995117 16.0,1.9995117 C16.0,1.9995117 2.0,15.999512 2.0,15.999512 C2.0,15.999512 2.0,15.999512 2.0,15.999512 C2.0,15.999512 5.999878,15.999512 5.999878,15.999512 C5.999878,15.999512 5.999878,25.0 5.999878,25.0 C5.999878,25.0 13.999878,25.0 13.999878,25.0 C13.999878,25.0 13.999878,19.999512 13.999878,19.999512 C13.999878,19.999512 17.999939,19.999512 17.999939,19.999512 C17.999939,19.999512 17.999939,25.0 17.999939,25.0 C17.999939,25.0 25.999939,25.0 25.999939,25.0 C25.999939,25.0 25.999939,15.999512 25.999939,15.999512 C25.999939,15.999512 28.999878,15.999512 28.999878,15.999512 C28.999878,15.999512 28.999878,15.999512 28.999878,15.999512 Z"/>
</svg>