<svg xmlns="http://www.w3.org/2000/svg"
 xmlns:xlink="http://www.w3.org/1999/xlink"
 width="19px" height="14px"  viewBox="0 0 19 14">
<path fill-rule="evenodd"  fill="#ffffff"
 d="M16.493164,2.171875 C16.493164,2.171875 15.999878,2.0 15.999878,2.0 C15.999878,2.0 15.999878,2.0 15.999878,2.0 C15.999878,2.0 15.999878,2.0 15.999878,2.0 C15.999878,2.0 3.0,2.0 3.0,2.0 C2.6347046,2.0004883 2.0009155,2.6342773 1.9998779,3.0 C1.9998779,3.0 1.9998779,11.999512 1.9998779,11.999512 C2.0009155,12.364746 2.6357422,12.998535 3.0,13.0 C3.0,13.0 16.999878,13.0 16.999878,13.0 C17.367126,12.998535 16.998962,12.364746 16.999878,11.999512 C16.999878,11.999512 16.999878,3.0 16.999878,3.0 C16.998962,2.633789 16.859375,2.1728516 16.493164,2.171875 ZM15.999878,11.999512 C15.999878,12.0390625 17.039917,11.999512 16.999878,11.999512 C16.999878,11.999512 3.0,11.999512 3.0,11.999512 C2.960968,11.999512 3.0,12.0390625 3.0,11.999512 C3.0,11.999512 3.0,11.999512 3.0,11.999512 C3.0,11.999512 7.9999084,8.0 7.9999084,8.0 C7.9999084,8.0 8.783142,8.794922 8.783142,8.794922 C8.987183,8.961426 9.2421875,9.038086 9.491211,9.038086 C9.740234,9.038086 9.996002,8.961426 10.199127,8.794922 C10.199127,8.794922 11.0,8.0 11.0,8.0 C11.0,8.0 15.999878,11.999512 15.999878,11.999512 C15.999878,11.999512 15.999878,11.999512 15.999878,11.999512 ZM9.827087,8.34082 C9.827087,8.34082 9.828125,8.34082 9.822144,8.343262 C9.816315,8.347168 10.013733,7.9902344 10.0,8.0 C9.91806,8.053711 9.601501,8.450195 9.495087,8.451172 C9.495087,8.451172 9.489258,8.451172 9.489258,8.451172 C9.489258,8.451172 9.002869,8.0 8.999908,8.0 C8.874023,7.998535 9.080933,8.067383 8.999908,8.0 C8.999908,8.0 3.9999695,3.0 3.9999695,3.0 C4.0126953,2.9882812 3.5146484,2.8125 3.0,3.0 C3.0,3.0 15.999878,3.0 15.999878,3.0 C16.023376,3.0 15.9852295,2.9814453 15.999878,3.0 C15.999878,3.0 10.0,8.0 10.0,8.0 C10.0,8.0 9.827087,8.34082 9.827087,8.34082 ZM3.0,10.999512 C3.0,10.999512 3.0,3.0 3.0,3.0 C3.0,3.0 6.999939,7.0 6.999939,7.0 C6.999939,7.0 3.0,10.999512 3.0,10.999512 ZM15.999878,3.9995117 C15.999878,3.9995117 15.999878,10.999512 15.999878,10.999512 C15.999878,10.999512 11.9999695,7.0 11.9999695,7.0 C11.9999695,7.0 15.999878,3.9995117 15.999878,3.9995117 Z"/>
</svg>