<svg xmlns="http://www.w3.org/2000/svg"
 xmlns:xlink="http://www.w3.org/1999/xlink"
 width="29px" height="26px"  viewBox="0 0 29 26">
<path fill-rule="evenodd"  fill="#000000"
 d="M28.0,22.0 C28.0,22.0 28.0,1.9995117 28.0,1.9995117 C28.0,1.9995117 1.999939,1.9995117 1.999939,1.9995117 C1.999939,1.9995117 1.999939,22.0 1.999939,22.0 C1.999939,22.0 13.0,22.0 13.0,22.0 C13.0,22.0 13.0,24.0 13.0,24.0 C13.0,24.0 7.999939,24.0 7.999939,24.0 C7.999939,24.0 7.999939,25.0 7.999939,25.0 C7.999939,25.0 21.999939,25.0 21.999939,25.0 C21.999939,25.0 21.999939,24.0 21.999939,24.0 C21.999939,24.0 16.999939,24.0 16.999939,24.0 C16.999939,24.0 16.999939,22.0 16.999939,22.0 C16.999939,22.0 28.0,22.0 28.0,22.0 ZM4.8515625,4.92041 C4.8515625,4.92041 25.11322,4.92041 25.11322,4.92041 C25.11322,4.92041 24.999939,19.0 24.999939,19.0 C24.999939,19.0 5.0,19.0 5.0,19.0 C5.0,19.0 4.8515625,4.92041 4.8515625,4.92041 Z"/>
</svg>