<svg xmlns="http://www.w3.org/2000/svg"
 xmlns:xlink="http://www.w3.org/1999/xlink"
 width="28px" height="28px"  viewBox="0 0 28 28">
<path fill-rule="evenodd"  fill="#000000"
 d="M7.8114014,16.63916 C9.499878,18.327148 9.499878,20.016113 11.1883545,20.016113 C12.876953,20.016113 14.56543,18.327148 16.253906,16.63916 C17.942383,14.950195 19.63086,13.262207 19.63086,11.57373 C19.63086,9.884766 17.942383,9.884766 16.253906,8.196777 C14.56543,6.5078125 19.63086,1.4423828 21.319214,1.4423828 C23.00769,1.4423828 26.384766,6.5078125 26.384766,6.5078125 C26.384766,9.884766 22.91504,16.730469 19.63086,20.016113 C16.346558,23.300293 9.499878,26.769043 6.123047,26.769043 C6.123047,26.769043 1.0576172,23.392578 1.0576172,21.70459 C1.0576172,20.016113 6.123047,14.950195 7.8114014,16.63916 C7.8114014,16.63916 7.8114014,16.63916 7.8114014,16.63916 Z"/>
</svg>