<svg xmlns="http://www.w3.org/2000/svg"
 xmlns:xlink="http://www.w3.org/1999/xlink"
 width="62px" height="62px"  viewBox="0 0 62 62">
<path fill-rule="evenodd"  fill="#ffffff"
 d="M31.378784,1.9116211 C15.085876,1.9116211 1.8787842,15.1188965 1.8787842,31.411377 C1.8787842,47.702393 15.085876,60.911133 31.378784,60.911133 C47.671753,60.911133 60.878845,47.702393 60.878845,31.411377 C60.878845,15.1188965 47.671753,1.9116211 31.378784,1.9116211 ZM29.339844,33.14209 C29.339844,33.14209 23.999878,39.999756 23.999878,39.999756 C23.999878,39.999756 19.0,39.999756 19.0,39.999756 C19.0,39.999756 22.650269,33.05786 22.650269,33.05786 C21.18158,32.188965 20.447205,30.895752 20.447205,29.182861 C20.447205,27.46997 20.937439,26.139893 21.91504,25.188965 C22.894531,24.23584 24.117065,23.75708 25.58789,23.75708 C27.054688,23.75708 28.292908,24.220215 29.297852,25.143799 C30.302734,26.07129 30.80664,27.278809 30.80664,28.776611 C30.80664,30.274658 30.317383,31.727783 29.339844,33.14209 ZM41.73822,33.14209 C41.73822,33.14209 36.99994,39.999756 36.99994,39.999756 C36.99994,39.999756 32.0,39.999756 32.0,39.999756 C32.0,39.999756 35.04883,33.05786 35.04883,33.05786 C33.580994,32.188965 32.84662,30.895752 32.84662,29.182861 C32.84662,27.46997 33.335876,26.139893 34.314453,25.188965 C35.293823,24.23584 36.51654,23.75708 37.986267,23.75708 C39.45398,23.75708 40.691345,24.220215 41.697266,25.143799 C42.702026,26.07129 43.20697,27.278809 43.20697,28.776611 C43.20697,30.274658 42.71582,31.727783 41.73822,33.14209 Z"/>
</svg>