<svg xmlns="http://www.w3.org/2000/svg"
 width="20px" height="17px"  viewBox="0 0 20 17">
<path fill-rule="evenodd"  fill="#ffffff"
 d="M18.707947,3.409668 C18.065369,3.6953125 17.374023,3.8876953 16.6474,3.9746094 C17.387634,3.5307617 17.958008,2.8276367 18.225586,1.9887695 C17.53125,2.400879 16.762695,2.699707 15.946228,2.8608398 C15.290955,2.161621 14.357361,1.7260742 13.325073,1.7260742 C11.342773,1.7260742 9.735291,3.3344727 9.735291,5.3168945 C9.735291,5.5966797 9.767578,5.870117 9.828125,6.133789 C6.8446655,5.9853516 4.1990967,4.5561523 2.428711,2.3833008 C2.1200562,2.9125977 1.9423218,3.5307617 1.9423218,4.1884766 C1.9423218,5.434082 2.5761108,6.5317383 3.5390015,7.177246 C2.9511108,7.157715 2.3973389,6.996582 1.9130249,6.727051 C1.9130249,6.742676 1.9130249,6.757324 1.9130249,6.772949 C1.9130249,8.510742 3.1503906,9.962402 4.7938843,10.293457 C4.49115,10.374512 4.1747437,10.417969 3.8466187,10.417969 C3.61615,10.417969 3.390564,10.396484 3.171753,10.354004 C3.6278076,11.780762 4.9541016,12.817383 6.524292,12.848145 C5.2957764,13.80957 3.7479858,14.383789 2.0664062,14.383789 C1.7763062,14.383789 1.4912109,14.367676 1.2098999,14.334473 C2.7997437,15.352051 4.6865234,15.947754 6.713867,15.947754 C13.317322,15.947754 16.927673,10.477051 16.927673,5.73291 C16.927673,5.5771484 16.924683,5.4223633 16.916931,5.2680664 C17.618103,4.762207 18.22754,4.1289062 18.707947,3.409668 Z"/>
</svg>