<svg xmlns="http://www.w3.org/2000/svg"
 width="21px" height="21px"  viewBox="0 0 21 21">
<path fill-rule="evenodd"  fill="#ffffff"
 d="M16.02832,10.095703 C16.02832,10.095703 4.972534,10.095703 4.972534,10.095703 C3.213745,10.095703 1.7889404,11.521973 1.7889404,13.280273 C1.7889404,13.280273 1.7889404,15.837891 1.7889404,15.837891 C1.7889404,17.594727 3.213745,19.020508 4.972534,19.020508 C4.972534,19.020508 16.02832,19.020508 16.02832,19.020508 C17.786133,19.020508 19.210815,17.594727 19.210815,15.837891 C19.210815,15.837891 19.210815,13.280273 19.210815,13.280273 C19.210815,11.521973 17.786133,10.095703 16.02832,10.095703 ZM7.2939453,12.087891 C7.2939453,12.087891 6.2666016,12.087891 6.2666016,12.087891 C6.2666016,12.087891 6.2666016,17.195312 6.2666016,17.195312 C6.2666016,17.195312 5.274414,17.195312 5.274414,17.195312 C5.274414,17.195312 5.274414,12.087891 5.274414,12.087891 C5.274414,12.087891 4.2470703,12.087891 4.2470703,12.087891 C4.2470703,12.087891 4.2470703,11.21875 4.2470703,11.21875 C4.2470703,11.21875 7.2939453,11.21875 7.2939453,11.21875 C7.2939453,11.21875 7.2939453,12.087891 7.2939453,12.087891 ZM10.198242,17.195312 C10.198242,17.195312 9.318237,17.195312 9.318237,17.195312 C9.318237,17.195312 9.318237,16.712402 9.318237,16.712402 C9.154297,16.890137 8.985352,17.026855 8.809448,17.11914 C8.63269,17.215332 8.462891,17.260742 8.296753,17.260742 C8.09375,17.260742 7.9404297,17.195312 7.836914,17.062988 C7.7333984,16.932617 7.6816406,16.73584 7.6816406,16.472168 C7.6816406,16.472168 7.6816406,12.785645 7.6816406,12.785645 C7.6816406,12.785645 8.5625,12.785645 8.5625,12.785645 C8.5625,12.785645 8.5625,16.168945 8.5625,16.168945 C8.5625,16.273438 8.583008,16.347656 8.618042,16.393066 C8.655151,16.442383 8.716797,16.464355 8.798828,16.464355 C8.862305,16.464355 8.9453125,16.435059 9.043945,16.373047 C9.144531,16.310059 9.2352295,16.230957 9.318237,16.135254 C9.318237,16.135254 9.318237,12.785645 9.318237,12.785645 C9.318237,12.785645 10.198242,12.785645 10.198242,12.785645 C10.198242,12.785645 10.198242,17.195312 10.198242,17.195312 ZM13.396484,16.285156 C13.396484,16.59668 13.328125,16.835938 13.189453,17.00293 C13.051636,17.169434 12.850586,17.25293 12.59082,17.25293 C12.417847,17.25293 12.263672,17.220703 12.129883,17.155762 C11.994141,17.092285 11.8671875,16.993164 11.752808,16.856445 C11.752808,16.856445 11.752808,17.195312 11.752808,17.195312 C11.752808,17.195312 10.861206,17.195312 10.861206,17.195312 C10.861206,17.195312 10.861206,11.21875 10.861206,11.21875 C10.861206,11.21875 11.752808,11.21875 11.752808,11.21875 C11.752808,11.21875 11.752808,13.143555 11.752808,13.143555 C11.871094,13.010742 11.998047,12.906738 12.129883,12.837402 C12.265503,12.767578 12.400391,12.732422 12.537109,12.732422 C12.816406,12.732422 13.02832,12.825684 13.176758,13.013672 C13.324219,13.201172 13.396484,13.477051 13.396484,13.837891 C13.396484,13.837891 13.396484,16.285156 13.396484,16.285156 ZM16.452148,15.097656 C16.452148,15.097656 14.768555,15.097656 14.768555,15.097656 C14.768555,15.097656 14.768555,15.927734 14.768555,15.927734 C14.768555,16.159668 14.794922,16.319824 14.852539,16.410156 C14.912109,16.500488 15.012695,16.544922 15.151245,16.544922 C15.2977295,16.544922 15.400391,16.506836 15.458984,16.430664 C15.516602,16.353516 15.545898,16.187012 15.545898,15.927734 C15.545898,15.927734 15.545898,15.7265625 15.545898,15.7265625 C15.545898,15.7265625 16.452148,15.7265625 16.452148,15.7265625 C16.452148,15.7265625 16.452148,15.953125 16.452148,15.953125 C16.452148,16.404785 16.342773,16.745117 16.119995,16.975586 C15.902222,17.203125 15.571289,17.31543 15.131836,17.31543 C14.736328,17.31543 14.424805,17.195312 14.199097,16.95166 C13.973633,16.712402 13.858398,16.378906 13.858398,15.953125 C13.858398,15.953125 13.858398,13.972168 13.858398,13.972168 C13.858398,13.591797 13.983398,13.277344 14.233398,13.037109 C14.483398,12.796387 14.802734,12.676758 15.197144,12.676758 C15.600586,12.676758 15.911133,12.788086 16.12793,13.011719 C16.345703,13.233887 16.452148,13.553711 16.452148,13.972168 C16.452148,13.972168 16.452148,15.097656 16.452148,15.097656 ZM15.15918,13.447266 C15.020508,13.447266 14.918823,13.488281 14.859253,13.5703125 C14.796753,13.647461 14.768555,13.780273 14.768555,13.964355 C14.768555,13.964355 14.768555,14.410156 14.768555,14.410156 C14.768555,14.410156 15.545898,14.410156 15.545898,14.410156 C15.545898,14.410156 15.545898,13.964355 15.545898,13.964355 C15.545898,13.780273 15.514648,13.647461 15.454102,13.5703125 C15.394531,13.488281 15.294922,13.447266 15.15918,13.447266 ZM12.121094,13.432617 C12.058594,13.432617 11.995117,13.445801 11.934448,13.475098 C11.873047,13.50293 11.8125,13.550293 11.752808,13.609863 C11.752808,13.609863 11.752808,16.357422 11.752808,16.357422 C11.823242,16.42871 11.893555,16.483887 11.9609375,16.51416 C12.030151,16.544922 12.099609,16.561523 12.174805,16.561523 C12.2821045,16.561523 12.360352,16.53125 12.411987,16.468262 C12.461914,16.404785 12.487305,16.305664 12.487305,16.163574 C12.487305,16.163574 12.487305,13.886719 12.487305,13.886719 C12.487305,13.736816 12.458008,13.625 12.395508,13.546387 C12.331055,13.470703 12.239258,13.432617 12.121094,13.432617 ZM6.419922,8.564453 C6.419922,8.564453 7.5360107,8.564453 7.5360107,8.564453 C7.5360107,8.564453 7.5360107,5.833008 7.5360107,5.833008 C7.5360107,5.833008 8.836914,1.9790039 8.836914,1.9790039 C8.836914,1.9790039 7.70105,1.9790039 7.70105,1.9790039 C7.70105,1.9790039 7.01062,4.6123047 7.01062,4.6123047 C7.01062,4.6123047 6.939331,4.6123047 6.939331,4.6123047 C6.939331,4.6123047 6.213867,1.9790039 6.213867,1.9790039 C6.213867,1.9790039 5.0897217,1.9790039 5.0897217,1.9790039 C5.0897217,1.9790039 6.419922,5.955078 6.419922,5.955078 C6.419922,5.955078 6.419922,8.564453 6.419922,8.564453 ZM10.349609,8.686523 C10.800781,8.686523 11.154297,8.568848 11.4140625,8.332031 C11.668823,8.094727 11.797852,7.770508 11.797852,7.354492 C11.797852,7.354492 11.797852,4.8466797 11.797852,4.8466797 C11.797852,4.476074 11.666016,4.1713867 11.405151,3.9375 C11.142578,3.7016602 10.805664,3.5839844 10.394409,3.5839844 C9.944214,3.5839844 9.584839,3.6972656 9.318237,3.9189453 C9.050781,4.1416016 8.916992,4.4404297 8.916992,4.8168945 C8.916992,4.8168945 8.916992,7.3344727 8.916992,7.3344727 C8.916992,7.748047 9.047852,8.075195 9.307617,8.3203125 C9.567383,8.564453 9.916992,8.686523 10.349609,8.686523 ZM9.9383545,4.779785 C9.9383545,4.6757812 9.977539,4.5893555 10.050781,4.5234375 C10.128906,4.458008 10.225586,4.425293 10.34668,4.425293 C10.478394,4.425293 10.584839,4.458008 10.666016,4.5234375 C10.746094,4.5893555 10.786011,4.6757812 10.786011,4.779785 C10.786011,4.779785 10.786011,7.4277344 10.786011,7.4277344 C10.786011,7.5566406 10.74707,7.659668 10.666992,7.734375 C10.586914,7.8081055 10.4823,7.8447266 10.34668,7.8447266 C10.214722,7.8447266 10.114136,7.8095703 10.043945,7.736328 C9.974609,7.663086 9.9383545,7.560547 9.9383545,7.4277344 C9.9383545,7.4277344 9.9383545,4.779785 9.9383545,4.779785 ZM13.295898,8.635742 C13.481323,8.635742 13.672852,8.582031 13.870117,8.47998 C14.069214,8.375977 14.260742,8.224121 14.441406,8.027344 C14.441406,8.027344 14.441406,8.564453 14.441406,8.564453 C14.441406,8.564453 15.43457,8.564453 15.43457,8.564453 C15.43457,8.564453 15.43457,3.7075195 15.43457,3.7075195 C15.43457,3.7075195 14.441406,3.7075195 14.441406,3.7075195 C14.441406,3.7075195 14.441406,7.394043 14.441406,7.394043 C14.349609,7.5 14.246948,7.5878906 14.135742,7.6552734 C14.024414,7.7231445 13.931641,7.7578125 13.858398,7.7578125 C13.765625,7.7578125 13.696289,7.732422 13.6571045,7.680664 C13.616211,7.6289062 13.592773,7.5444336 13.592773,7.430176 C13.592773,7.430176 13.592773,3.7075195 13.592773,3.7075195 C13.592773,3.7075195 12.602417,3.7075195 12.602417,3.7075195 C12.602417,3.7075195 12.602417,7.7666016 12.602417,7.7666016 C12.602417,8.056641 12.661011,8.271973 12.776367,8.416016 C12.893555,8.561035 13.06543,8.635742 13.295898,8.635742 Z"/>
</svg>